<svg id="b-preview" xmlns="http://www.w3.org/2000/svg" width="20" height="20" viewBox="0 0 20 20">
  <path id="Combined_Shape" data-name="Combined Shape" d="M2.076,16.642a.778.778,0,0,1-.548-.572.814.814,0,0,1,.217-.775L3.813,13.14a15.5,15.5,0,0,1-3.7-4,.826.826,0,0,1,0-.844c.146-.241,3.647-5.921,9.015-5.921a8.323,8.323,0,0,1,3.983,1.071L16.2.232a.739.739,0,0,1,1.075,0,.818.818,0,0,1,0,1.121L2.82,16.417a.748.748,0,0,1-.554.25A.74.74,0,0,1,2.076,16.642ZM9.131,5.549A3.113,3.113,0,0,0,6.087,8.72a3.177,3.177,0,0,0,.437,1.594L10.662,6A2.863,2.863,0,0,0,9.131,5.549ZM6.666,14.576,15.7,5a15.889,15.889,0,0,1,2.513,3.076.853.853,0,0,1,0,.864C18.069,9.188,14.559,15,9.144,15A7.741,7.741,0,0,1,6.666,14.576Z" transform="translate(0.834 1.667)" fill="#c1c0c8"/>
</svg>
